# xmcd
#
# Track frame offsets:
#	150
#	20673
#	38019
#	49919
#	65583
#	78349
#	93342
#	98445
#	109031
#	120303
#	133619
#	144316
#	153333
#	161180
#	170176
#	182984
#	194318
#	209030
#
# Disc length: 2939 seconds
#
# Revision: 1
# Processed by: cddbd v1.5.1PL0 Copyright (c) Steve Scherf et al.
# Submitted via: audiograbber 1.83.01
#
DISCID=fa0b7912
DTITLE=Memphis Slim - Confessing The Blues
DYEAR=1997
DGENRE=Blues
TTITLE0=Bye Bye Will Be On My Way
TTITLE1=Letter Home
TTITLE2=Memphis Slim USA
TTITLE3=Born With The Blues
TTITLE4=Rocking The House
TTITLE5=I Wanna Dance
TTITLE6=Coco Boogie
TTITLE7=Fat Cat
TTITLE8=Chunkin'
TTITLE9=Lonely Nights
TTITLE10=Walk On
TTITLE11=Pretending I'm Happy
TTITLE12=The Big Dream
TTITLE13=The Natural Fact
TTITLE14=Blues Universal
TTITLE15=She's Gone For Twelve Hours
TTITLE16=My Walking Shoes
TTITLE17=When I'm Gone
EXTD=UAV Entertainment Corp\n\nNote: Tray indicates 19 songs - #19 "T.W.A." is 
EXTD=NOT ON CD
EXTT0=
EXTT1=
EXTT2=
EXTT3=
EXTT4=
EXTT5=
EXTT6=
EXTT7=
EXTT8=
EXTT9=
EXTT10=
EXTT11=
EXTT12=
EXTT13=
EXTT14=
EXTT15=
EXTT16=
EXTT17=
PLAYORDER=
